<?xml version="1.0" encoding="UTF-8"?>
<svg version="1.1" xmlns="http://www.w3.org/2000/svg" width="512" height="512">
<path d="M0 0 C4.89872999 2.85759249 7.79346527 7.1303958 9.5625 12.4375 C9.5625 21.0175 9.5625 29.5975 9.5625 38.4375 C39.2625 38.4375 68.9625 38.4375 99.5625 38.4375 C99.5625 29.8575 99.5625 21.2775 99.5625 12.4375 C104.07147227 3.41955546 104.07147227 3.41955546 107.125 1.5 C107.70378906 1.11972656 108.28257812 0.73945312 108.87890625 0.34765625 C114.49811227 -2.69010477 121.89172797 -2.55816692 127.953125 -0.9140625 C132.95949234 1.32160536 135.97250522 4.64656545 138.5625 9.4375 C141.62118527 18.6135558 139.5625 28.76508791 139.5625 38.4375 C169.5925 38.4375 199.6225 38.4375 230.5625 38.4375 C230.5625 29.8575 230.5625 21.2775 230.5625 12.4375 C235.07147227 3.41955546 235.07147227 3.41955546 238.125 1.5 C238.70378906 1.11972656 239.28257812 0.73945312 239.87890625 0.34765625 C245.49811227 -2.69010477 252.89172797 -2.55816692 258.953125 -0.9140625 C263.95949234 1.32160536 266.97250522 4.64656545 269.5625 9.4375 C270.64167226 12.67501678 270.67675601 15.01501771 270.66015625 18.41796875 C270.65693359 19.58134766 270.65371094 20.74472656 270.65039062 21.94335938 C270.64201172 23.15830078 270.63363281 24.37324219 270.625 25.625 C270.62048828 26.85154297 270.61597656 28.07808594 270.61132812 29.34179688 C270.59953065 32.37374668 270.58306921 35.40559906 270.5625 38.4375 C271.62984375 38.41655273 272.6971875 38.39560547 273.796875 38.37402344 C277.83742322 38.30046085 281.87791528 38.25528764 285.91894531 38.21777344 C287.6527712 38.19791802 289.38653255 38.17082427 291.12011719 38.13574219 C305.88464636 37.84489978 319.75797625 39.08734246 333 46.25 C333.66410889 46.59764404 334.32821777 46.94528809 335.01245117 47.3034668 C340.33610202 50.16233179 345.09290575 53.35124686 349.5625 57.4375 C350.45453125 58.23800781 351.3465625 59.03851563 352.265625 59.86328125 C366.20526164 73.02214589 375.38959672 90.87846287 376.84210014 110.14650917 C376.95680291 114.25862511 376.98029248 118.36068904 376.96655273 122.47387695 C376.97226963 124.03915388 376.97923894 125.60442665 376.98735046 127.16969299 C377.00514169 131.38013108 377.00414144 135.59035922 376.99840808 139.80082345 C376.99529881 143.32741748 377.00142717 146.85397218 377.00744683 150.38056058 C377.02144135 158.69978589 377.01997041 167.01890836 377.00854492 175.33813477 C376.99704062 183.90379805 377.01118962 192.46914906 377.0379414 201.03477126 C377.06011563 208.41261436 377.06673272 215.79035953 377.06086498 223.16823357 C377.05750172 227.56478543 377.05986971 231.96113667 377.07711601 236.35766029 C377.09261307 240.48734116 377.08859938 244.61655879 377.06981087 248.74622154 C377.06613406 250.25706267 377.06920693 251.76793837 377.07969666 253.27874756 C377.1306087 261.22012713 377.0596889 267.62713776 372.5625 274.4375 C370.74609375 276.27734375 370.74609375 276.27734375 369 277.375 C368.42121094 277.75527344 367.84242188 278.13554687 367.24609375 278.52734375 C361.62688773 281.56510477 354.23327203 281.43316692 348.171875 279.7890625 C343.16550766 277.55339464 340.15249478 274.22843455 337.5625 269.4375 C336.49241757 266.22725271 336.4298668 263.91447899 336.41773987 260.53883362 C336.41084137 259.30675674 336.40394287 258.07467987 336.39683533 256.80526733 C336.39412059 255.43731704 336.39148344 254.06936659 336.38891602 252.70141602 C336.38261011 251.26233215 336.37584427 249.82325024 336.36865234 248.38417053 C336.35397812 245.28214995 336.34225462 242.18013692 336.33270454 239.07809639 C336.31723754 234.16400262 336.29328455 229.24997298 336.26780701 224.33592224 C336.19665564 210.36078964 336.13699724 196.38561942 336.08569336 182.41040039 C336.05729079 174.6940333 336.02185057 166.97772918 335.97903961 159.2614283 C335.95241414 154.38668577 335.9344183 149.51201448 335.92300236 144.63721383 C335.91380429 141.58720571 335.89640841 138.5372831 335.87682343 135.48732567 C335.86941895 134.08461493 335.86527121 132.68188213 335.86482811 131.27915192 C335.85597034 115.7496803 334.55581363 102.06837568 323.58203125 90.2578125 C311.89757015 79.72597716 297.97902254 79.37494938 283.0625 78.875 C281.25652344 78.81022461 281.25652344 78.81022461 279.4140625 78.74414062 C276.46363807 78.63876832 273.51313929 78.53664097 270.5625 78.4375 C270.58344727 79.18322266 270.60439453 79.92894531 270.62597656 80.69726562 C270.70966634 84.11053725 270.76132794 87.52359224 270.8125 90.9375 C270.84601563 92.11054687 270.87953125 93.28359375 270.9140625 94.4921875 C270.99115968 101.35383696 270.73856346 106.79252513 266.5625 112.4375 C264.74609375 114.27734375 264.74609375 114.27734375 263 115.375 C262.42121094 115.75527344 261.84242188 116.13554688 261.24609375 116.52734375 C255.62688773 119.56510477 248.23327203 119.43316692 242.171875 117.7890625 C237.16550766 115.55339464 234.15249478 112.22843455 231.5625 107.4375 C228.50381473 98.2614442 230.5625 88.10991209 230.5625 78.4375 C200.5325 78.4375 170.5025 78.4375 139.5625 78.4375 C139.5625 87.0175 139.5625 95.5975 139.5625 104.4375 C135.05352773 113.45544454 135.05352773 113.45544454 132 115.375 C131.42121094 115.75527344 130.84242188 116.13554688 130.24609375 116.52734375 C124.62688773 119.56510477 117.23327203 119.43316692 111.171875 117.7890625 C106.16550766 115.55339464 103.15249478 112.22843455 100.5625 107.4375 C97.50381473 98.2614442 99.5625 88.10991209 99.5625 78.4375 C69.8625 78.4375 40.1625 78.4375 9.5625 78.4375 C9.5625 87.0175 9.5625 95.5975 9.5625 104.4375 C5.05352773 113.45544454 5.05352773 113.45544454 2 115.375 C1.42121094 115.75527344 0.84242188 116.13554688 0.24609375 116.52734375 C-5.37311227 119.56510477 -12.76672797 119.43316692 -18.828125 117.7890625 C-23.83449234 115.55339464 -26.84750522 112.22843455 -29.4375 107.4375 C-30.51667226 104.19998322 -30.55175601 101.85998229 -30.53515625 98.45703125 C-30.53032227 96.71196289 -30.53032227 96.71196289 -30.52539062 94.93164062 C-30.51282227 93.10922852 -30.51282227 93.10922852 -30.5 91.25 C-30.49548828 90.02345703 -30.49097656 88.79691406 -30.48632812 87.53320312 C-30.47453065 84.50125332 -30.45806921 81.46940094 -30.4375 78.4375 C-34.35465725 78.54928894 -38.27101228 78.679437 -42.1875 78.8125 C-43.27933594 78.8434375 -44.37117188 78.874375 -45.49609375 78.90625 C-60.01646176 79.42176602 -72.62298409 81.20270688 -83.6171875 91.41796875 C-93.99711711 102.93389923 -94.59049641 116.43883247 -94.57121277 131.16351318 C-94.5746111 133.0721686 -94.5746111 133.0721686 -94.57807809 135.01938272 C-94.58417192 138.53543814 -94.58406536 142.0514697 -94.58288372 145.5675292 C-94.5826791 149.36588498 -94.58820431 153.16423321 -94.59294128 156.96258545 C-94.60123517 164.39845485 -94.60399556 171.83431633 -94.60455366 179.27018997 C-94.60502943 185.31680839 -94.60708721 191.36342421 -94.61025429 197.41004181 C-94.61905748 214.56729885 -94.6236742 231.72454965 -94.62292381 248.88180897 C-94.62286388 250.26820904 -94.62286388 250.26820904 -94.62280273 251.68261719 C-94.62274141 253.07071729 -94.62274141 253.07071729 -94.62267885 254.48685983 C-94.6222725 269.48059662 -94.63184033 284.47430829 -94.6459411 299.46803781 C-94.66031779 314.87719991 -94.66721057 330.28634976 -94.66634732 345.69551873 C-94.6660158 354.34106778 -94.66874343 362.98659049 -94.67952538 371.63213348 C-94.68864739 378.99362198 -94.69079168 386.3550722 -94.68401595 393.71656391 C-94.68075931 397.46892668 -94.68066299 401.22121607 -94.6893692 404.97357178 C-94.6987303 409.05028699 -94.69243588 413.12683356 -94.68473816 417.20355225 C-94.68988172 418.37711706 -94.69502529 419.55068187 -94.70032471 420.75980926 C-94.64028135 435.19721066 -92.57207075 447.73084869 -82.45703125 458.6171875 C-72.53455487 467.56085093 -60.87069744 469.55593759 -47.92358398 469.56880188 C-46.85599051 469.57197545 -46.85599051 469.57197545 -45.76682949 469.57521313 C-43.40573498 469.58115683 -41.04469478 469.58021706 -38.68359375 469.5793457 C-36.98112905 469.58238085 -35.27866516 469.58590329 -33.57620239 469.58987427 C-29.92149771 469.5977347 -26.26680267 469.60289729 -22.61209106 469.60616493 C-16.82917322 469.61209734 -11.04631617 469.6286574 -5.26342773 469.64750671 C-3.28028873 469.65384316 -1.29714969 469.6601688 0.68598938 469.66648388 C1.6787771 469.66964969 2.67156483 469.6728155 3.69443703 469.67607725 C17.14881987 469.71809662 30.60317303 469.75114307 44.05761719 469.76342773 C53.14629437 469.7718112 62.23481944 469.79430733 71.32342052 469.8327834 C76.12803875 469.85252416 80.93242969 469.86495494 85.73709106 469.85994911 C90.25494495 469.85529873 94.77236748 469.86912928 99.29013443 469.89696121 C100.94447539 469.90386475 102.59886104 469.90400856 104.25320053 469.89676094 C121.89281939 469.82730577 121.89281939 469.82730577 128.40234375 476.25390625 C128.76457031 476.83011719 129.12679688 477.40632813 129.5 478 C129.88027344 478.57878906 130.26054687 479.15757812 130.65234375 479.75390625 C133.69010477 485.37311227 133.55816692 492.76672797 131.9140625 498.828125 C129.67839464 503.83449234 126.35343455 506.84750522 121.5625 509.4375 C118.05416815 510.60694395 114.8979332 510.58562674 111.24812317 510.58467102 C110.49730821 510.58834771 109.74649325 510.5920244 108.97292632 510.5958125 C106.44914778 510.60685255 103.92541041 510.61069386 101.40161133 510.61450195 C99.59463877 510.62076682 97.78766749 510.62741364 95.98069763 510.63441467 C90.03531798 510.65547087 84.08993806 510.66582482 78.14453125 510.67578125 C76.09469782 510.67982951 74.04486452 510.68394646 71.99503136 510.68813133 C62.35533102 510.70719367 52.71563835 510.72141733 43.07592279 510.7297433 C31.97307302 510.73949226 20.87042387 510.76574598 9.7676447 510.80624419 C1.17377302 510.83650657 -7.42004154 510.85122211 -16.01396543 510.85452431 C-21.13975854 510.85686509 -26.26533762 510.86569667 -31.39107323 510.89098549 C-36.22481498 510.91444594 -41.0582046 510.91842798 -45.89198875 510.90822411 C-47.654258 510.90773282 -49.41654563 510.91393117 -51.17876053 510.92778015 C-65.41211047 511.03326149 -79.11095878 509.52911509 -91.875 502.625 C-92.53910889 502.27735596 -93.20321777 501.92971191 -93.88745117 501.5715332 C-99.21110202 498.71266821 -103.96790575 495.52375314 -108.4375 491.4375 C-109.32953125 490.63699219 -110.2215625 489.83648437 -111.140625 489.01171875 C-125.85985581 475.11692573 -135.19935364 456.02808615 -135.81781673 435.6351347 C-135.83538505 433.16548371 -135.83697346 430.69568324 -135.82518005 428.22599792 C-135.82936354 426.840244 -135.83484657 425.45449351 -135.84149987 424.06874925 C-135.85584049 420.29801215 -135.85174582 416.52749572 -135.84433305 412.75674713 C-135.83957517 408.67549316 -135.8521343 404.59428517 -135.86235046 400.51304626 C-135.87949315 392.53172923 -135.88038786 384.55049108 -135.87513756 376.56916042 C-135.87108591 370.07741815 -135.87255121 363.58569908 -135.87788582 357.0939579 C-135.87863424 356.16781746 -135.87938266 355.24167702 -135.88015376 354.28747172 C-135.88168534 352.40563135 -135.88322369 350.523791 -135.88476873 348.64195064 C-135.89847756 331.01828916 -135.89306763 313.39467214 -135.88158352 295.77101169 C-135.87165442 279.67448556 -135.88458911 263.57807443 -135.90851771 247.48156603 C-135.93294465 230.92412358 -135.94250766 214.3667346 -135.93586498 197.80927449 C-135.93238054 188.52536983 -135.93455338 179.24155355 -135.95211601 169.95766258 C-135.9668831 162.05399079 -135.9674149 154.15046961 -135.9500451 146.24680062 C-135.94156937 142.220429 -135.93930078 138.19432592 -135.95469666 134.16796875 C-136.08445776 97.63949414 -136.08445776 97.63949414 -127.625 82 C-127.27735596 81.33589111 -126.92971191 80.67178223 -126.5715332 79.98754883 C-123.71266821 74.66389798 -120.52375314 69.90709425 -116.4375 65.4375 C-115.23673828 64.09945312 -115.23673828 64.09945312 -114.01171875 62.734375 C-100.85370389 48.79563856 -82.35858068 38.91217115 -62.91943359 38.19848633 C-57.98668017 38.10845103 -53.05749393 38.17413016 -48.125 38.25 C-46.40170451 38.26508674 -44.67839613 38.27876803 -42.95507812 38.29101562 C-38.78222655 38.32367627 -34.61001048 38.37523326 -30.4375 38.4375 C-30.4689209 37.31891602 -30.4689209 37.31891602 -30.50097656 36.17773438 C-30.58466634 32.76446275 -30.63632794 29.35140776 -30.6875 25.9375 C-30.72101563 24.76445312 -30.75453125 23.59140625 -30.7890625 22.3828125 C-30.86615968 15.52116304 -30.61356346 10.08247487 -26.4375 4.4375 C-24.62109375 2.59765625 -24.62109375 2.59765625 -22.875 1.5 C-22.29621094 1.11972656 -21.71742187 0.73945312 -21.12109375 0.34765625 C-14.98998289 -2.96684219 -6.30251123 -2.81448021 0 0 Z " fill="#000000" transform="translate(135.4375,1.5625)"/>
<path d="M0 0 C4.93118269 3.48790971 8.5680539 7.03910339 10.5625 12.8125 C11.95491752 24.85181734 7.58079787 31.82392594 0.625 41.1875 C-0.54052224 42.77853036 -1.70588228 44.36967954 -2.87109375 45.9609375 C-3.76030518 47.1689502 -3.76030518 47.1689502 -4.66748047 48.40136719 C-7.44746408 52.18828004 -10.19149141 56.00091978 -12.9375 59.8125 C-14.01931074 61.31135709 -15.10134259 62.81005463 -16.18359375 64.30859375 C-16.71968262 65.05093262 -17.25577148 65.79327148 -17.80810547 66.55810547 C-19.44469149 68.82244999 -21.08341165 71.08523581 -22.72265625 73.34765625 C-28.50675609 81.33522269 -34.24552761 89.35112129 -39.91821289 97.41821289 C-44.09005074 103.34229108 -48.33063377 109.21490075 -52.58203125 115.08203125 C-56.23745637 120.13332276 -59.85103602 125.21205362 -63.4375 130.3125 C-68.1431846 137.00366283 -72.90501569 143.65197349 -77.71166992 150.27099609 C-80.23823154 153.75267947 -82.74831085 157.24188466 -85.19921875 160.77734375 C-94.84598704 174.66956244 -105.31874926 185.07570515 -122.4375 188.8125 C-125.95174819 189.19431192 -129.40544463 189.23445495 -132.9375 189.1875 C-133.81019531 189.19910156 -134.68289063 189.21070313 -135.58203125 189.22265625 C-152.38792646 189.14796338 -163.83110158 180.33999577 -175.33984375 168.92578125 C-176.43803002 167.81763411 -177.53353883 166.7068226 -178.62548828 165.5925293 C-180.40827901 163.84120523 -182.25226692 162.21636376 -184.15234375 160.59375 C-188.41491333 156.8850019 -192.40556765 152.95556462 -196.375 148.9375 C-197.09937256 148.20934082 -197.82374512 147.48118164 -198.57006836 146.73095703 C-201.63292424 143.65193049 -204.68972311 140.56691677 -207.74707031 137.48242188 C-209.99594117 135.21534542 -212.24790238 132.95137034 -214.5 130.6875 C-215.17732178 130.00187988 -215.85464355 129.31625977 -216.55249023 128.60986328 C-220.47678693 124.66575423 -224.50855217 120.92437297 -228.74415588 117.31561279 C-230.88863541 115.41204542 -232.65113001 113.35017688 -234.375 111.0625 C-234.94089844 110.32515625 -235.50679688 109.5878125 -236.08984375 108.828125 C-239.49357146 103.73733224 -238.86657537 97.69473329 -238.4375 91.8125 C-236.4430539 86.03910339 -232.80618269 82.48790971 -227.875 79 C-221.94795991 76.95247706 -215.34437539 76.5275095 -209.53466797 79.09570312 C-199.46029186 84.68004908 -191.37647308 94.77634274 -183.3125 102.9375 C-174.15178221 112.24067682 -174.15178221 112.24067682 -164.47558594 120.99707031 C-159.81711474 125.14661413 -155.5045558 129.68452638 -151.125 134.125 C-149.17348727 136.10317187 -147.21862308 138.07794457 -145.26171875 140.05078125 C-144.40666748 140.91743408 -143.55161621 141.78408691 -142.6706543 142.67700195 C-139.50713652 145.70217851 -137.41009685 147.12387518 -133.0625 147.25 C-132.31226563 147.28996094 -131.56203125 147.32992187 -130.7890625 147.37109375 C-124.68445862 145.92099681 -120.88434063 138.50298191 -117.4375 133.625 C-116.28271018 132.0076996 -115.12775769 130.39051535 -113.97265625 128.7734375 C-113.38629395 127.9494043 -112.79993164 127.12537109 -112.19580078 126.27636719 C-109.97718679 123.16747349 -107.73640233 120.07501246 -105.49414062 116.9831543 C-100.2592253 109.76304415 -95.08659783 102.50186006 -89.95678711 95.20678711 C-85.78494926 89.28270892 -81.54436623 83.41009925 -77.29296875 77.54296875 C-73.63754284 72.49167614 -70.02403845 67.41289475 -66.4375 62.3125 C-60.72701546 54.19482948 -54.9239197 46.14633771 -49.10058594 38.109375 C-46.83177745 34.97594132 -44.56798996 31.83889616 -42.30444336 28.70166016 C-40.66672942 26.43281093 -39.02682303 24.16555911 -37.38671875 21.8984375 C-35.58782031 19.410489 -33.79726508 16.91717186 -32.01953125 14.4140625 C-23.67201108 2.73066655 -15.17195644 -5.24122132 0 0 Z " fill="#000000" transform="translate(501.4375,323.1875)"/>
<path d="M0 0 C4.89872999 2.85759249 7.79346527 7.1303958 9.5625 12.4375 C10.22384489 19.75566066 10.30340673 26.48380318 5.5625 32.4375 C-0.31091297 37.77696633 -5.52093201 38.80560469 -13.359375 38.7109375 C-18.60956546 38.24455002 -22.43333677 36.64207956 -26 32.71875 C-30.78040344 26.30866357 -31.13555921 20.29565224 -30.4375 12.4375 C-28.90478311 6.78676061 -25.94904415 3.51969493 -21.12109375 0.34765625 C-14.98998289 -2.96684219 -6.30251123 -2.81448021 0 0 Z " fill="#000000" transform="translate(222.4375,365.5625)"/>
<path d="M0 0 C4.89872999 2.85759249 7.79346527 7.1303958 9.5625 12.4375 C10.22384489 19.75566066 10.30340673 26.48380318 5.5625 32.4375 C-0.31091297 37.77696633 -5.52093201 38.80560469 -13.359375 38.7109375 C-18.60956546 38.24455002 -22.43333677 36.64207956 -26 32.71875 C-30.78040344 26.30866357 -31.13555921 20.29565224 -30.4375 12.4375 C-28.90478311 6.78676061 -25.94904415 3.51969493 -21.12109375 0.34765625 C-14.98998289 -2.96684219 -6.30251123 -2.81448021 0 0 Z " fill="#000000" transform="translate(135.4375,365.5625)"/>
<path d="M0 0 C4.89872999 2.85759249 7.79346527 7.1303958 9.5625 12.4375 C10.22384489 19.75566066 10.30340673 26.48380318 5.5625 32.4375 C-0.31091297 37.77696633 -5.52093201 38.80560469 -13.359375 38.7109375 C-18.60956546 38.24455002 -22.43333677 36.64207956 -26 32.71875 C-30.78040344 26.30866357 -31.13555921 20.29565224 -30.4375 12.4375 C-28.90478311 6.78676061 -25.94904415 3.51969493 -21.12109375 0.34765625 C-14.98998289 -2.96684219 -6.30251123 -2.81448021 0 0 Z " fill="#000000" transform="translate(396.4375,278.5625)"/>
<path d="M0 0 C4.89872999 2.85759249 7.79346527 7.1303958 9.5625 12.4375 C10.22384489 19.75566066 10.30340673 26.48380318 5.5625 32.4375 C-0.31091297 37.77696633 -5.52093201 38.80560469 -13.359375 38.7109375 C-18.60956546 38.24455002 -22.43333677 36.64207956 -26 32.71875 C-30.78040344 26.30866357 -31.13555921 20.29565224 -30.4375 12.4375 C-28.90478311 6.78676061 -25.94904415 3.51969493 -21.12109375 0.34765625 C-14.98998289 -2.96684219 -6.30251123 -2.81448021 0 0 Z " fill="#000000" transform="translate(309.4375,278.5625)"/>
<path d="M0 0 C4.89872999 2.85759249 7.79346527 7.1303958 9.5625 12.4375 C10.22384489 19.75566066 10.30340673 26.48380318 5.5625 32.4375 C-0.31091297 37.77696633 -5.52093201 38.80560469 -13.359375 38.7109375 C-18.60956546 38.24455002 -22.43333677 36.64207956 -26 32.71875 C-30.78040344 26.30866357 -31.13555921 20.29565224 -30.4375 12.4375 C-28.90478311 6.78676061 -25.94904415 3.51969493 -21.12109375 0.34765625 C-14.98998289 -2.96684219 -6.30251123 -2.81448021 0 0 Z " fill="#000000" transform="translate(222.4375,278.5625)"/>
<path d="M0 0 C4.89872999 2.85759249 7.79346527 7.1303958 9.5625 12.4375 C10.22384489 19.75566066 10.30340673 26.48380318 5.5625 32.4375 C-0.31091297 37.77696633 -5.52093201 38.80560469 -13.359375 38.7109375 C-18.60956546 38.24455002 -22.43333677 36.64207956 -26 32.71875 C-30.78040344 26.30866357 -31.13555921 20.29565224 -30.4375 12.4375 C-28.90478311 6.78676061 -25.94904415 3.51969493 -21.12109375 0.34765625 C-14.98998289 -2.96684219 -6.30251123 -2.81448021 0 0 Z " fill="#000000" transform="translate(135.4375,278.5625)"/>
<path d="M0 0 C4.89872999 2.85759249 7.79346527 7.1303958 9.5625 12.4375 C10.22384489 19.75566066 10.30340673 26.48380318 5.5625 32.4375 C-0.31091297 37.77696633 -5.52093201 38.80560469 -13.359375 38.7109375 C-18.60956546 38.24455002 -22.43333677 36.64207956 -26 32.71875 C-30.78040344 26.30866357 -31.13555921 20.29565224 -30.4375 12.4375 C-28.90478311 6.78676061 -25.94904415 3.51969493 -21.12109375 0.34765625 C-14.98998289 -2.96684219 -6.30251123 -2.81448021 0 0 Z " fill="#000000" transform="translate(396.4375,191.5625)"/>
<path d="M0 0 C4.89872999 2.85759249 7.79346527 7.1303958 9.5625 12.4375 C10.22384489 19.75566066 10.30340673 26.48380318 5.5625 32.4375 C-0.31091297 37.77696633 -5.52093201 38.80560469 -13.359375 38.7109375 C-18.60956546 38.24455002 -22.43333677 36.64207956 -26 32.71875 C-30.78040344 26.30866357 -31.13555921 20.29565224 -30.4375 12.4375 C-28.90478311 6.78676061 -25.94904415 3.51969493 -21.12109375 0.34765625 C-14.98998289 -2.96684219 -6.30251123 -2.81448021 0 0 Z " fill="#000000" transform="translate(309.4375,191.5625)"/>
<path d="M0 0 C4.89872999 2.85759249 7.79346527 7.1303958 9.5625 12.4375 C10.22384489 19.75566066 10.30340673 26.48380318 5.5625 32.4375 C-0.31091297 37.77696633 -5.52093201 38.80560469 -13.359375 38.7109375 C-18.60956546 38.24455002 -22.43333677 36.64207956 -26 32.71875 C-30.78040344 26.30866357 -31.13555921 20.29565224 -30.4375 12.4375 C-28.90478311 6.78676061 -25.94904415 3.51969493 -21.12109375 0.34765625 C-14.98998289 -2.96684219 -6.30251123 -2.81448021 0 0 Z " fill="#000000" transform="translate(222.4375,191.5625)"/>
<path d="M0 0 C4.89872999 2.85759249 7.79346527 7.1303958 9.5625 12.4375 C10.22384489 19.75566066 10.30340673 26.48380318 5.5625 32.4375 C-0.31091297 37.77696633 -5.52093201 38.80560469 -13.359375 38.7109375 C-18.60956546 38.24455002 -22.43333677 36.64207956 -26 32.71875 C-30.78040344 26.30866357 -31.13555921 20.29565224 -30.4375 12.4375 C-28.90478311 6.78676061 -25.94904415 3.51969493 -21.12109375 0.34765625 C-14.98998289 -2.96684219 -6.30251123 -2.81448021 0 0 Z " fill="#000000" transform="translate(135.4375,191.5625)"/>
</svg>
